<?xml version="1.0" encoding="UTF-8" standalone="no"?>
<svg
   xmlns:dc="http://purl.org/dc/elements/1.1/"
   xmlns:cc="http://creativecommons.org/ns#"
   xmlns:rdf="http://www.w3.org/1999/02/22-rdf-syntax-ns#"
   xmlns:svg="http://www.w3.org/2000/svg"
   xmlns="http://www.w3.org/2000/svg"
   xmlns:sodipodi="http://sodipodi.sourceforge.net/DTD/sodipodi-0.dtd"
   xmlns:inkscape="http://www.inkscape.org/namespaces/inkscape"
   width="24"
   height="24"
   viewBox="0 0 24 24"
   version="1.1"
   id="svg4"
   sodipodi:docname="icons8-gitlab.svg"
   inkscape:version="0.92.4 5da689c313, 2019-01-14">
  <metadata
     id="metadata10">
    <rdf:RDF>
      <cc:Work
         rdf:about="">
        <dc:format>image/svg+xml</dc:format>
        <dc:type
           rdf:resource="http://purl.org/dc/dcmitype/StillImage" />
        <dc:title></dc:title>
      </cc:Work>
    </rdf:RDF>
  </metadata>
  <defs
     id="defs8" />
  <sodipodi:namedview
     pagecolor="#ffffff"
     bordercolor="#666666"
     borderopacity="1"
     objecttolerance="10"
     gridtolerance="10"
     guidetolerance="10"
     inkscape:pageopacity="0"
     inkscape:pageshadow="2"
     inkscape:window-width="1278"
     inkscape:window-height="1022"
     id="namedview6"
     showgrid="false"
     inkscape:zoom="9.8333333"
     inkscape:cx="-0.71186441"
     inkscape:cy="12"
     inkscape:window-x="1280"
     inkscape:window-y="26"
     inkscape:window-maximized="0"
     inkscape:current-layer="svg4" />
  <path
     d="M 5 0 C 2.239 0 0 2.239 0 5 L 0 19 C 0 21.761 2.239 24 5 24 L 19 24 C 21.762 24 24 21.761 24 19 L 24 5 C 24 2.239 21.762 0 19 0 L 5 0 z M 7.2714844 4.3457031 C 7.426665 4.3499743 7.5609702 4.4510178 7.609375 4.5976562 L 9.421875 10.177734 L 14.578125 10.177734 L 16.390625 4.5976562 C 16.440453 4.4453235 16.582735 4.3442731 16.742188 4.3457031 C 16.893097 4.3471267 17.025998 4.441096 17.080078 4.5820312 L 19.265625 10.414062 C 19.265625 10.416963 19.268131 10.421028 19.269531 10.423828 L 20.359375 13.330078 C 20.416322 13.483835 20.364824 13.655143 20.232422 13.751953 L 12.216797 19.580078 L 12.214844 19.583984 C 12.209154 19.588274 12.202966 19.591403 12.197266 19.595703 C 12.195766 19.595703 12.194759 19.595703 12.193359 19.595703 C 12.191959 19.597203 12.1903 19.600162 12.1875 19.601562 C 12.18038 19.605873 12.172562 19.608981 12.164062 19.613281 C 12.161262 19.614781 12.15905 19.615787 12.15625 19.617188 C 12.15475 19.618587 12.153744 19.619141 12.152344 19.619141 C 12.150944 19.620541 12.149838 19.621094 12.148438 19.621094 C 12.142737 19.623894 12.137959 19.626106 12.130859 19.628906 C 12.125159 19.630306 12.118981 19.633919 12.113281 19.636719 L 12.107422 19.636719 C 12.106022 19.638119 12.104363 19.638672 12.101562 19.638672 C 12.097323 19.640172 12.093591 19.641178 12.087891 19.642578 C 12.084991 19.643978 12.080925 19.643131 12.078125 19.644531 C 12.075225 19.644531 12.073666 19.646484 12.072266 19.646484 C 12.069466 19.646484 12.067253 19.647037 12.064453 19.648438 L 12.0625 19.648438 C 12.05684 19.649837 12.052575 19.648438 12.046875 19.648438 C 12.034065 19.651337 12.022052 19.652897 12.007812 19.654297 C 11.993582 19.654297 11.977131 19.652344 11.962891 19.652344 C 11.952921 19.650844 11.943594 19.649838 11.933594 19.648438 C 11.926484 19.647038 11.919209 19.645378 11.912109 19.642578 C 11.907809 19.642578 11.905144 19.640625 11.902344 19.640625 C 11.895224 19.637725 11.890466 19.636166 11.884766 19.634766 C 11.883366 19.633366 11.882259 19.632812 11.880859 19.632812 C 11.873739 19.630012 11.865922 19.6278 11.857422 19.625 L 11.857422 19.623047 C 11.848882 19.620147 11.841084 19.616081 11.833984 19.613281 C 11.832584 19.611781 11.829525 19.610775 11.828125 19.609375 C 11.825225 19.609375 11.823666 19.608822 11.822266 19.607422 C 11.820866 19.607422 11.818359 19.605469 11.818359 19.605469 C 11.818359 19.605469 11.816406 19.603516 11.816406 19.603516 C 11.810746 19.600616 11.806481 19.59655 11.800781 19.59375 C 11.796541 19.59095 11.791409 19.588738 11.787109 19.585938 C 11.787109 19.585938 11.785156 19.583984 11.785156 19.583984 L 11.783203 19.582031 L 3.7675781 13.751953 C 3.633757 13.655143 3.583678 13.483835 3.640625 13.330078 L 4.734375 10.414062 C 4.734375 10.414062 4.7363281 10.412109 4.7363281 10.412109 L 6.9199219 4.5820312 C 6.9754454 4.436816 7.1163033 4.342856 7.2714844 4.3457031 z M 7.2382812 5.8144531 L 5.6015625 10.177734 L 8.65625 10.177734 L 7.2382812 5.8144531 z M 16.761719 5.8144531 L 15.34375 10.177734 L 18.400391 10.177734 L 16.761719 5.8144531 z M 5.828125 10.90625 L 11.025391 17.472656 L 8.8925781 10.90625 L 5.828125 10.90625 z M 9.6601562 10.90625 L 12 18.111328 L 14.339844 10.90625 L 9.6601562 10.90625 z M 15.107422 10.90625 L 12.974609 17.472656 L 18.171875 10.90625 L 15.107422 10.90625 z M 5.1894531 11.273438 L 4.4199219 13.326172 L 10.064453 17.431641 L 5.1894531 11.273438 z M 18.810547 11.273438 L 13.935547 17.431641 L 19.580078 13.326172 L 18.810547 11.273438 z "
     id="path2" />
</svg>
