<?xml version="1.0" encoding="UTF-8" standalone="no"?>
<svg
   xmlns:dc="http://purl.org/dc/elements/1.1/"
   xmlns:cc="http://creativecommons.org/ns#"
   xmlns:rdf="http://www.w3.org/1999/02/22-rdf-syntax-ns#"
   xmlns:svg="http://www.w3.org/2000/svg"
   xmlns="http://www.w3.org/2000/svg"
   xmlns:sodipodi="http://sodipodi.sourceforge.net/DTD/sodipodi-0.dtd"
   xmlns:inkscape="http://www.inkscape.org/namespaces/inkscape"
   width="24"
   height="24"
   viewBox="0 0 24 24"
   version="1.1"
   id="svg4"
   sodipodi:docname="resume.svg"
   inkscape:version="0.92.4 5da689c313, 2019-01-14">
  <metadata
     id="metadata10">
    <rdf:RDF>
      <cc:Work
         rdf:about="">
        <dc:format>image/svg+xml</dc:format>
        <dc:type
           rdf:resource="http://purl.org/dc/dcmitype/StillImage" />
        <dc:title></dc:title>
      </cc:Work>
    </rdf:RDF>
  </metadata>
  <defs
     id="defs8" />
  <sodipodi:namedview
     pagecolor="#ffffff"
     bordercolor="#666666"
     borderopacity="1"
     objecttolerance="10"
     gridtolerance="10"
     guidetolerance="10"
     inkscape:pageopacity="0"
     inkscape:pageshadow="2"
     inkscape:window-width="1278"
     inkscape:window-height="1022"
     id="namedview6"
     showgrid="false"
     inkscape:zoom="9.8333333"
     inkscape:cx="12.457627"
     inkscape:cy="12"
     inkscape:window-x="1280"
     inkscape:window-y="26"
     inkscape:window-maximized="0"
     inkscape:current-layer="svg4" />
  <path
     d="M 5 0 C 2.239 0 0 2.239 0 5 L 0 19 C 0 21.761 2.239 24 5 24 L 19 24 C 21.762 24 24 21.761 24 19 L 24 5 C 24 2.239 21.762 0 19 0 L 5 0 z M 4.5761719 3.0917969 L 19.423828 3.0917969 L 19.423828 13.771484 C 19.423828 15.546498 14.488751 20.908203 12.140625 20.908203 L 4.5761719 20.908203 L 4.5761719 3.0917969 z M 6.0605469 4.5761719 L 6.0605469 19.423828 L 11.525391 19.423828 C 14.610693 19.423828 13.484375 14.96875 13.484375 14.96875 C 13.484375 14.96875 17.939453 16.193457 17.939453 13.144531 L 17.939453 4.5761719 L 6.0605469 4.5761719 z M 8.2890625 7.5449219 L 15.710938 7.5449219 L 15.710938 8.2890625 L 8.2890625 8.2890625 L 8.2890625 7.5449219 z M 8.2890625 9.7734375 L 15.710938 9.7734375 L 15.710938 10.515625 L 8.2890625 10.515625 L 8.2890625 9.7734375 z M 8.2890625 12 L 15.710938 12 L 15.710938 12.742188 L 8.2890625 12.742188 L 8.2890625 12 z "
     id="path2" />
</svg>
